<svg width="130" height="68" viewBox="0 0 130 68" fill="none" xmlns="http://www.w3.org/2000/svg">
<path d="M15.1692 22.1346C16.3981 22.4121 17.3694 23.0265 18.083 23.978C18.8164 24.9096 19.1831 25.98 19.1831 27.1891C19.1831 28.9731 18.5686 30.3705 17.3397 31.3815C16.1107 32.3924 14.3862 32.8978 12.1662 32.8978H1.78944V11.9362H11.8391C13.9799 11.9362 15.6548 12.4119 16.864 13.3634C18.0929 14.3148 18.7074 15.6528 18.7074 17.3773C18.7074 18.6063 18.3803 19.637 17.7262 20.4695C17.0919 21.2822 16.2396 21.8372 15.1692 22.1346ZM7.61706 20.2614H10.5606C12.0274 20.2614 12.7608 19.6568 12.7608 18.4477C12.7608 17.1989 12.0274 16.5745 10.5606 16.5745H7.61706V20.2614ZM11.0066 28.2C12.4734 28.2 13.2068 27.5856 13.2068 26.3566C13.2068 25.7223 13.0086 25.2367 12.6122 24.8997C12.2356 24.5627 11.6905 24.3942 10.9769 24.3942H7.61706V28.2H11.0066ZM24.6807 14.6716C23.6499 14.6716 22.8174 14.3941 22.1831 13.8391C21.5686 13.2643 21.2614 12.5507 21.2614 11.6983C21.2614 10.8262 21.5686 10.1027 22.1831 9.52785C22.8174 8.95302 23.6499 8.6656 24.6807 8.6656C25.6916 8.6656 26.5043 8.95302 27.1188 9.52785C27.7531 10.1027 28.0702 10.8262 28.0702 11.6983C28.0702 12.5507 27.7531 13.2643 27.1188 13.8391C26.5043 14.3941 25.6916 14.6716 24.6807 14.6716ZM27.5647 16.2177V32.8978H21.7371V16.2177H27.5647ZM37.9896 33.106C36.4831 33.106 35.1352 32.8582 33.9459 32.3626C32.7764 31.8473 31.8448 31.1535 31.151 30.2813C30.4771 29.3894 30.1005 28.3884 30.0212 27.2783H35.6704C35.7497 27.8135 35.9975 28.2298 36.4137 28.5271C36.83 28.8244 37.3454 28.9731 37.9598 28.9731C38.4356 28.9731 38.8122 28.874 39.0897 28.6758C39.3672 28.4776 39.5059 28.2199 39.5059 27.9027C39.5059 27.4865 39.278 27.1792 38.8221 26.981C38.3662 26.7828 37.613 26.5647 36.5624 26.3269C35.3731 26.089 34.382 25.8214 33.5891 25.5241C32.7962 25.2268 32.1025 24.7411 31.5078 24.0672C30.933 23.3932 30.6456 22.4814 30.6456 21.3318C30.6456 20.3407 30.9132 19.4487 31.4484 18.6558C31.9836 17.8431 32.7665 17.1989 33.7973 16.7232C34.8478 16.2475 36.1065 16.0096 37.5733 16.0096C39.7537 16.0096 41.4683 16.5448 42.7171 17.6152C43.9659 18.6856 44.6894 20.0929 44.8876 21.8372H39.6249C39.5258 21.302 39.2879 20.8957 38.9113 20.6182C38.5545 20.3209 38.0689 20.1722 37.4544 20.1722C36.9787 20.1722 36.612 20.2614 36.3543 20.4398C36.1164 20.6182 35.9975 20.866 35.9975 21.1831C35.9975 21.5795 36.2254 21.8868 36.6813 22.1048C37.1372 22.303 37.8706 22.5112 38.8816 22.7292C40.0907 22.9869 41.0917 23.2743 41.8846 23.5915C42.6973 23.9086 43.4009 24.424 43.9956 25.1376C44.6101 25.8313 44.9173 26.7828 44.9173 27.9919C44.9173 28.9632 44.6299 29.8353 44.0551 30.6084C43.5001 31.3815 42.6973 31.9959 41.6467 32.4518C40.616 32.8879 39.3969 33.106 37.9896 33.106ZM58.2186 32.8978L53.61 26.0593V32.8978H47.7823V10.8956H53.61V22.7589L58.2186 16.2177H65.2058L58.6348 24.6024L65.3247 32.8978H58.2186ZM72.8608 19.1613C73.5149 18.2098 74.3078 17.4566 75.2394 16.9016C76.171 16.3466 77.1721 16.0691 78.2424 16.0691V22.2832H76.6071C75.3385 22.2832 74.397 22.531 73.7825 23.0265C73.168 23.5221 72.8608 24.3843 72.8608 25.6133V32.8978H67.0332V16.2177H72.8608V19.1613ZM79.3802 24.5429C79.3802 22.8184 79.6874 21.3119 80.3019 20.0235C80.9362 18.7351 81.7885 17.744 82.8589 17.0502C83.9491 16.3565 85.1583 16.0096 86.4863 16.0096C87.636 16.0096 88.6271 16.2376 89.4596 16.6935C90.2921 17.1494 90.9363 17.7638 91.3922 18.5369V16.2177H97.2199V32.8978H91.3922V30.5787C90.9363 31.3517 90.2822 31.9662 89.4299 32.4221C88.5973 32.878 87.6162 33.106 86.4863 33.106C85.1583 33.106 83.9491 32.7591 82.8589 32.0653C81.7885 31.3715 80.9362 30.3805 80.3019 29.092C79.6874 27.7838 79.3802 26.2674 79.3802 24.5429ZM91.3922 24.5429C91.3922 23.4725 91.0949 22.6301 90.5002 22.0156C89.9254 21.4011 89.2118 21.0939 88.3595 21.0939C87.4873 21.0939 86.7638 21.4011 86.189 22.0156C85.6142 22.6103 85.3267 23.4527 85.3267 24.5429C85.3267 25.6133 85.6142 26.4656 86.189 27.0999C86.7638 27.7144 87.4873 28.0216 88.3595 28.0216C89.2118 28.0216 89.9254 27.7144 90.5002 27.0999C91.0949 26.4855 91.3922 25.6331 91.3922 24.5429ZM18.9397 62.8978H16.234L5.3518 46.3961V62.8978H2.64611V42.1443H5.3518L16.234 58.6163V42.1443H18.9397V62.8978ZM22.5411 54.6916C22.5411 53.0265 22.878 51.5696 23.552 50.3209C24.2259 49.0523 25.1476 48.0711 26.3171 47.3773C27.5064 46.6835 28.8246 46.3367 30.2716 46.3367C31.6988 46.3367 32.9376 46.6439 33.9882 47.2584C35.0388 47.8729 35.8217 48.6459 36.3371 49.5775V46.6043H39.0725V62.8978H36.3371V59.8651C35.8019 60.8165 34.9991 61.6094 33.9287 62.2437C32.8782 62.8582 31.6492 63.1654 30.2419 63.1654C28.7949 63.1654 27.4866 62.8086 26.3171 62.095C25.1476 61.3815 24.2259 60.3805 23.552 59.092C22.878 57.8036 22.5411 56.3368 22.5411 54.6916ZM36.3371 54.7213C36.3371 53.4924 36.0893 52.422 35.5938 51.5102C35.0982 50.5984 34.4243 49.9046 33.5719 49.4289C32.7394 48.9333 31.8177 48.6856 30.8068 48.6856C29.7959 48.6856 28.8742 48.9234 28.0416 49.3991C27.2091 49.8749 26.5451 50.5686 26.0495 51.4804C25.554 52.3922 25.3062 53.4626 25.3062 54.6916C25.3062 55.9404 25.554 57.0306 26.0495 57.9622C26.5451 58.874 27.2091 59.5777 28.0416 60.0732C28.8742 60.5489 29.7959 60.7868 30.8068 60.7868C31.8177 60.7868 32.7394 60.5489 33.5719 60.0732C34.4243 59.5777 35.0982 58.874 35.5938 57.9622C36.0893 57.0306 36.3371 55.9503 36.3371 54.7213ZM42.6339 54.6916C42.6339 53.0265 42.9709 51.5696 43.6448 50.3209C44.3188 49.0523 45.2405 48.0711 46.41 47.3773C47.5993 46.6835 48.9274 46.3367 50.3942 46.3367C51.6628 46.3367 52.8422 46.634 53.9324 47.2286C55.0226 47.8035 55.8551 48.5666 56.4299 49.5181V40.8956H59.1654V62.8978H56.4299V59.8353C55.8948 60.8066 55.1019 61.6094 54.0513 62.2437C53.0008 62.8582 51.7718 63.1654 50.3645 63.1654C48.9175 63.1654 47.5993 62.8086 46.41 62.095C45.2405 61.3815 44.3188 60.3805 43.6448 59.092C42.9709 57.8036 42.6339 56.3368 42.6339 54.6916ZM56.4299 54.7213C56.4299 53.4924 56.1822 52.422 55.6866 51.5102C55.1911 50.5984 54.5171 49.9046 53.6648 49.4289C52.8323 48.9333 51.9106 48.6856 50.8996 48.6856C49.8887 48.6856 48.967 48.9234 48.1345 49.3991C47.302 49.8749 46.6379 50.5686 46.1424 51.4804C45.6469 52.3922 45.3991 53.4626 45.3991 54.6916C45.3991 55.9404 45.6469 57.0306 46.1424 57.9622C46.6379 58.874 47.302 59.5777 48.1345 60.0732C48.967 60.5489 49.8887 60.7868 50.8996 60.7868C51.9106 60.7868 52.8323 60.5489 53.6648 60.0732C54.5171 59.5777 55.1911 58.874 55.6866 57.9622C56.1822 57.0306 56.4299 55.9503 56.4299 54.7213ZM65.1352 43.958C64.6198 43.958 64.1837 43.7796 63.8269 43.4228C63.4701 43.0661 63.2917 42.63 63.2917 42.1146C63.2917 41.5992 63.4701 41.1632 63.8269 40.8064C64.1837 40.4496 64.6198 40.2712 65.1352 40.2712C65.6307 40.2712 66.047 40.4496 66.3839 40.8064C66.7407 41.1632 66.9191 41.5992 66.9191 42.1146C66.9191 42.63 66.7407 43.0661 66.3839 43.4228C66.047 43.7796 65.6307 43.958 65.1352 43.958ZM66.4434 46.6043V62.8978H63.7377V46.6043H66.4434ZM77.6852 48.8342H74.2659V62.8978H71.5602V48.8342H69.4492V46.6043H71.5602V45.4447C71.5602 43.6211 72.026 42.293 72.9577 41.4605C73.9091 40.6081 75.4255 40.182 77.5068 40.182V42.4417C76.3175 42.4417 75.475 42.6795 74.9795 43.1553C74.5038 43.6112 74.2659 44.3743 74.2659 45.4447V46.6043H77.6852V48.8342ZM79.829 54.6916C79.829 53.0265 80.1659 51.5696 80.8399 50.3209C81.5138 49.0523 82.4355 48.0711 83.605 47.3773C84.7943 46.6835 86.1125 46.3367 87.5595 46.3367C88.9867 46.3367 90.2255 46.6439 91.2761 47.2584C92.3266 47.8729 93.1096 48.6459 93.625 49.5775V46.6043H96.3604V62.8978H93.625V59.8651C93.0898 60.8165 92.287 61.6094 91.2166 62.2437C90.1661 62.8582 88.9371 63.1654 87.5297 63.1654C86.0828 63.1654 84.7745 62.8086 83.605 62.095C82.4355 61.3815 81.5138 60.3805 80.8399 59.092C80.1659 57.8036 79.829 56.3368 79.829 54.6916ZM93.625 54.7213C93.625 53.4924 93.3772 52.422 92.8817 51.5102C92.3861 50.5984 91.7122 49.9046 90.8598 49.4289C90.0273 48.9333 89.1056 48.6856 88.0947 48.6856C87.0838 48.6856 86.162 48.9234 85.3295 49.3991C84.497 49.8749 83.833 50.5686 83.3374 51.4804C82.8419 52.3922 82.5941 53.4626 82.5941 54.6916C82.5941 55.9404 82.8419 57.0306 83.3374 57.9622C83.833 58.874 84.497 59.5777 85.3295 60.0732C86.162 60.5489 87.0838 60.7868 88.0947 60.7868C89.1056 60.7868 90.0273 60.5489 90.8598 60.0732C91.7122 59.5777 92.3861 58.874 92.8817 57.9622C93.3772 57.0306 93.625 55.9503 93.625 54.7213Z" fill="#158443"/>
<path d="M115.32 22.7642L114.24 12.2191L100.64 11.3821L114.24 10.545L115.32 -8.62445e-06L116.399 10.545L130 11.3821L116.399 12.2191L115.32 22.7642Z" fill="#158443"/>
<path d="M118.915 28.8037L118.408 23.854L112.024 23.4611L118.408 23.0682L118.915 18.1185L119.422 23.0682L125.806 23.4611L119.422 23.854L118.915 28.8037Z" fill="#158443"/>
</svg>
